<svg width="150" height="150" viewBox="0 0 150 150" fill="none" xmlns="http://www.w3.org/2000/svg">
<path d="M51.3701 22.2412L83.0195 42.6768L83.5889 43.0449V46.2148H86.4814L86.627 46.251C99.5314 49.4113 105.53 60.8139 105.271 71.6641C105.011 82.4865 98.4952 93.1832 86.0283 94.7949L82.2314 95.4277L108.337 125.961H115.754C116.442 125.961 117 126.519 117 127.207C117 127.895 116.442 128.453 115.754 128.453H89.2207L88.8467 127.986L61.9326 94.3428L61.3555 93.6211L61.8779 92.8594L72.5098 77.3643L72.8809 76.8223H83.2559C86.6231 76.3916 88.6454 73.2814 88.7295 69.7217C88.8122 66.2123 86.9789 62.8842 83.208 62.1191H57.6719V46.2148H81.0967V44.4004L51.9395 25.5752V107.498L51.623 107.853L43.3984 117.051L35.1748 126.249L33 128.682V49.3574L33.4639 48.9834L40.7256 43.127V40.0762L41.2666 39.7051L49.4482 34.0938V21L51.3701 22.2412ZM60.1641 59.627H83.457L83.5723 59.6494C88.954 60.6678 91.3239 65.4095 91.2207 69.7812C91.1182 74.112 88.5548 78.71 83.4863 79.3066L83.4131 79.3145H74.1934L64.4551 93.5068L90.4189 125.961H105.058L79.1914 95.7061C78.4355 94.8218 78.9346 93.4511 80.082 93.2598L85.6279 92.335L85.6514 92.3311L85.6748 92.3281C96.608 90.9322 102.54 81.5796 102.779 71.6045C103.017 61.6866 97.5963 51.5757 86.1748 48.707H60.1641V59.627ZM35.4922 50.5479V122.155L41.2197 115.748L40.7432 46.3145L35.4922 50.5479ZM43.2178 41.3887V43.7148L43.6934 112.981L49.4482 106.545V37.1162L43.2178 41.3887Z" fill="black"/>
</svg>
