<svg width="50" height="50" viewBox="0 0 50 50" fill="none" xmlns="http://www.w3.org/2000/svg">
<rect width="50" height="50" rx="10" fill="#111E20"/>
<path d="M18.835 6.68066L29.9551 13.8613L30.2676 14.0635V15.0645H31.0674L31.1475 15.084C35.8185 16.2279 37.979 20.3584 37.8857 24.2588C37.7926 28.1427 35.4483 32.0298 30.9219 32.6211L30.9229 32.623L30.0156 32.7734L38.8311 43.084H41.3232C41.7009 43.0841 42.0067 43.3909 42.0068 43.7686C42.0066 44.1461 41.7009 44.452 41.3232 44.4521H31.8818L31.6768 44.1953L22.2197 32.375L21.9033 31.9785L22.1904 31.5605L25.9258 26.1162L26.1299 25.8193H29.8779C30.8958 25.6863 31.5542 24.7395 31.582 23.5645C31.6089 22.4192 31.0194 21.3909 29.8564 21.1455H20.6689V15.0645H28.8994V14.8076L19.1475 8.51172V36.9375L18.9736 37.1318L16.084 40.3643L13.1943 43.5957L12 44.9316V16.2979L12.2549 16.0918L14.7148 14.1084V13.0244L15.0117 12.8203L17.7793 10.9229V6L18.835 6.68066ZM22.0381 19.7773H29.999L30.0615 19.7891C32.1049 20.1757 32.9882 21.9785 32.9502 23.5967C32.9124 25.1924 31.96 26.9536 30.0146 27.1826L29.9746 27.1875H26.8496L23.6055 31.916L32.54 43.084H37.0303L28.2891 32.8604C27.8992 32.4039 28.1569 31.6964 28.749 31.5977L30.6973 31.2725L30.71 31.2705L30.7236 31.2686C34.4108 30.7977 36.4356 27.6454 36.5176 24.2256C36.5985 20.8365 34.7548 17.416 30.8955 16.4336H22.0381V19.7773ZM13.3691 16.9512V41.3467L14.8877 39.6484L14.7236 15.8584L13.3691 16.9512ZM16.083 13.7451V14.4307L16.2451 38.1289L17.7793 36.4141V12.582L16.083 13.7451Z" fill="#F3F0F0"/>
</svg>
