<svg width="150" height="150" viewBox="0 0 150 150" fill="none" xmlns="http://www.w3.org/2000/svg">
<path d="M44.6533 6.90723L85.2832 33.1406L86.4268 33.8799V37.5391H89.3477L89.6406 37.6104C106.707 41.7901 114.6 56.88 114.259 71.1309C113.919 85.3271 105.347 99.5411 88.7969 101.693L85.5029 102.242L117.71 139.913H126.817C128.198 139.913 129.317 141.033 129.317 142.413C129.317 143.794 128.198 144.913 126.817 144.913H92.3232L91.5723 143.975L57.0215 100.786L55.8633 99.3389L56.9121 97.8096L70.5596 77.917L71.3047 76.832H85.0303C88.7325 76.3314 91.1243 72.8775 91.2256 68.5957C91.3241 64.4177 89.1796 60.6617 84.9443 59.7568H51.3545V37.5391H81.4268V36.6025L45.7969 13.5977V117.455L45.1611 118.167L34.6035 129.976L24.0459 141.783L19.6826 146.664V42.0439L20.6133 41.293L29.6006 34.0439V30.085L30.6865 29.3408L40.7969 22.4072V4.41797L44.6533 6.90723ZM56.3545 54.7568H85.4414L85.6709 54.8008C93.1376 56.2135 96.3631 62.8011 96.2236 68.7139C96.0857 74.5444 92.6073 80.9779 85.499 81.8145L85.3535 81.832H73.9375L62.083 99.1084L94.7256 139.913H111.132L79.1953 102.559C77.7701 100.891 78.711 98.3051 80.875 97.9443L87.9951 96.7578L88.042 96.75L88.0889 96.7441C101.561 95.0241 108.961 83.5072 109.261 71.0117C109.557 58.6312 102.824 46.1321 88.7295 42.5391H56.3545V54.7568ZM24.6826 44.4346V133.57L30.2334 127.36L29.6357 40.4395L24.6826 44.4346ZM34.6006 32.7178V35.2412H34.5996L35.1953 121.811L40.7969 115.546V28.4697L34.6006 32.7178Z" fill="black"/>
</svg>
