<svg width="50" height="50" viewBox="0 0 50 50" fill="none" xmlns="http://www.w3.org/2000/svg">
<mask id="path-2-outside-1_3472_1028" maskUnits="userSpaceOnUse" x="7" y="2" width="36" height="47" fill="black">
<rect fill="white" x="7" y="2" width="36" height="47"/>
<path d="M15.7451 3.77246L28.3477 11.9092L28.7031 12.1387V13.2744H29.6084L29.6992 13.2969C34.9928 14.5934 37.4417 19.2741 37.3359 23.6943C37.2302 28.0958 34.573 32.5018 29.4434 33.1719L28.416 33.3438L38.4062 45.0283H41.2314C41.6593 45.0286 42.0065 45.3759 42.0068 45.8037C42.0066 46.2316 41.6593 46.5788 41.2314 46.5791H30.5312L30.2988 46.2881L19.582 32.8926L19.2227 32.4434L19.5479 31.9688L23.7812 25.7988L24.0127 25.4619H28.2676C29.4169 25.3076 30.1599 24.2359 30.1914 22.9072C30.2219 21.61 29.5547 20.4451 28.2383 20.166H17.8242V13.2744H27.1514V12.9814L16.1006 5.84668V38.0615L15.9023 38.2822L9.35352 45.6084L8 47.1221V14.6709L8.28906 14.4385L11.0762 12.1895V10.9619L11.4131 10.7305L14.5488 8.5791V3L15.7451 3.77246ZM19.375 18.6152H28.3975L28.4688 18.6289C30.7843 19.0673 31.7844 21.1105 31.7412 22.9443C31.6982 24.7526 30.6196 26.7483 28.415 27.0078L28.3701 27.0127H24.8291L21.1514 32.3721L31.2773 45.0283H36.3662L26.46 33.4424C26.0179 32.9252 26.3095 32.1228 26.9805 32.0107L29.1895 31.6426L29.2188 31.6387C33.3972 31.105 35.692 27.5326 35.7852 23.6572C35.8771 19.8163 33.7876 15.9388 29.4141 14.8252H19.375V18.6152ZM9.55078 15.4121V43.0596L11.2715 41.1348L11.0869 14.1729L9.55078 15.4121ZM12.627 11.7783V12.5557L12.8105 39.4131L14.5488 37.4707V10.46L12.627 11.7783Z"/>
</mask>
<path d="M15.7451 3.77246L28.3477 11.9092L28.7031 12.1387V13.2744H29.6084L29.6992 13.2969C34.9928 14.5934 37.4417 19.2741 37.3359 23.6943C37.2302 28.0958 34.573 32.5018 29.4434 33.1719L28.416 33.3438L38.4062 45.0283H41.2314C41.6593 45.0286 42.0065 45.3759 42.0068 45.8037C42.0066 46.2316 41.6593 46.5788 41.2314 46.5791H30.5312L30.2988 46.2881L19.582 32.8926L19.2227 32.4434L19.5479 31.9688L23.7812 25.7988L24.0127 25.4619H28.2676C29.4169 25.3076 30.1599 24.2359 30.1914 22.9072C30.2219 21.61 29.5547 20.4451 28.2383 20.166H17.8242V13.2744H27.1514V12.9814L16.1006 5.84668V38.0615L15.9023 38.2822L9.35352 45.6084L8 47.1221V14.6709L8.28906 14.4385L11.0762 12.1895V10.9619L11.4131 10.7305L14.5488 8.5791V3L15.7451 3.77246ZM19.375 18.6152H28.3975L28.4688 18.6289C30.7843 19.0673 31.7844 21.1105 31.7412 22.9443C31.6982 24.7526 30.6196 26.7483 28.415 27.0078L28.3701 27.0127H24.8291L21.1514 32.3721L31.2773 45.0283H36.3662L26.46 33.4424C26.0179 32.9252 26.3095 32.1228 26.9805 32.0107L29.1895 31.6426L29.2188 31.6387C33.3972 31.105 35.692 27.5326 35.7852 23.6572C35.8771 19.8163 33.7876 15.9388 29.4141 14.8252H19.375V18.6152ZM9.55078 15.4121V43.0596L11.2715 41.1348L11.0869 14.1729L9.55078 15.4121ZM12.627 11.7783V12.5557L12.8105 39.4131L14.5488 37.4707V10.46L12.627 11.7783Z" fill="white"/>
<path d="M15.7451 3.77246L15.5281 4.10849L15.5282 4.10851L15.7451 3.77246ZM28.3477 11.9092L28.1307 12.2452L28.1307 12.2452L28.3477 11.9092ZM28.7031 12.1387H29.1031V11.9208L28.9201 11.8026L28.7031 12.1387ZM28.7031 13.2744H28.3031V13.6744H28.7031V13.2744ZM29.6084 13.2744L29.7044 12.8861L29.6571 12.8744H29.6084V13.2744ZM29.6992 13.2969L29.6032 13.6852L29.6041 13.6854L29.6992 13.2969ZM37.3359 23.6943L37.7358 23.7039V23.7039L37.3359 23.6943ZM29.4434 33.1719L29.3916 32.7752L29.3844 32.7762L29.3774 32.7774L29.4434 33.1719ZM28.416 33.3438L28.35 32.9492L27.6522 33.066L28.112 33.6037L28.416 33.3438ZM38.4062 45.0283L38.1022 45.2883L38.222 45.4283H38.4062V45.0283ZM41.2314 45.0283L41.2317 44.6283H41.2314V45.0283ZM42.0068 45.8037L42.4068 45.8039V45.8034L42.0068 45.8037ZM41.2314 46.5791V46.9791H41.2317L41.2314 46.5791ZM30.5312 46.5791L30.2187 46.8287L30.3388 46.9791H30.5312V46.5791ZM30.2988 46.2881L30.6114 46.0385L30.6112 46.0382L30.2988 46.2881ZM19.582 32.8926L19.2697 33.1425L19.2697 33.1425L19.582 32.8926ZM19.2227 32.4434L18.8927 32.2173L18.7251 32.4618L18.9103 32.6932L19.2227 32.4434ZM19.5479 31.9688L19.218 31.7424L19.2179 31.7427L19.5479 31.9688ZM23.7812 25.7988L23.4515 25.5723L23.4514 25.5725L23.7812 25.7988ZM24.0127 25.4619V25.0619H23.8022L23.683 25.2354L24.0127 25.4619ZM28.2676 25.4619V25.8619H28.2943L28.3208 25.8584L28.2676 25.4619ZM30.1914 22.9072L30.5913 22.9167L30.5913 22.9166L30.1914 22.9072ZM28.2383 20.166L28.3212 19.7747L28.2802 19.766H28.2383V20.166ZM17.8242 20.166H17.4242V20.566H17.8242V20.166ZM17.8242 13.2744V12.8744H17.4242V13.2744H17.8242ZM27.1514 13.2744V13.6744H27.5514V13.2744H27.1514ZM27.1514 12.9814H27.5514V12.7636L27.3683 12.6454L27.1514 12.9814ZM16.1006 5.84668L16.3175 5.51063L15.7006 5.1123V5.84668H16.1006ZM16.1006 38.0615L16.3982 38.3288L16.5006 38.2148V38.0615H16.1006ZM15.9023 38.2822L15.6048 38.0149L15.6041 38.0156L15.9023 38.2822ZM9.35352 45.6084L9.65169 45.875L9.65174 45.875L9.35352 45.6084ZM8 47.1221H7.6V48.1695L8.29818 47.3887L8 47.1221ZM8 14.6709L7.74935 14.3592L7.6 14.4793V14.6709H8ZM8.28906 14.4385L8.53971 14.7502L8.54026 14.7498L8.28906 14.4385ZM11.0762 12.1895L11.3274 12.5007L11.4762 12.3807V12.1895H11.0762ZM11.0762 10.9619L10.8497 10.6322L10.6762 10.7514V10.9619H11.0762ZM11.4131 10.7305L11.1868 10.4006L11.1866 10.4008L11.4131 10.7305ZM14.5488 8.5791L14.7751 8.90894L14.9488 8.78976V8.5791H14.5488ZM14.5488 3L14.7658 2.66397L14.1488 2.26557V3H14.5488ZM19.375 18.6152H18.975V19.0152H19.375V18.6152ZM28.3975 18.6152L28.4728 18.2224L28.4355 18.2152H28.3975V18.6152ZM28.4688 18.6289L28.3934 19.0217L28.3943 19.0219L28.4688 18.6289ZM31.7412 22.9443L32.1411 22.9538L32.1411 22.9538L31.7412 22.9443ZM28.415 27.0078L28.4583 27.4055L28.4618 27.4051L28.415 27.0078ZM28.3701 27.0127V27.4127H28.3918L28.4133 27.4104L28.3701 27.0127ZM24.8291 27.0127V26.6127H24.6185L24.4993 26.7864L24.8291 27.0127ZM21.1514 32.3721L20.8216 32.1457L20.6537 32.3903L20.839 32.622L21.1514 32.3721ZM31.2773 45.0283L30.965 45.2782L31.0851 45.4283H31.2773V45.0283ZM36.3662 45.0283V45.4283H37.2345L36.6702 44.7684L36.3662 45.0283ZM26.46 33.4424L26.1559 33.7023L26.1559 33.7023L26.46 33.4424ZM26.9805 32.0107L26.9147 31.6162L26.9146 31.6162L26.9805 32.0107ZM29.1895 31.6426L29.1366 31.2459L29.1237 31.248L29.1895 31.6426ZM29.2188 31.6387L29.1681 31.2419L29.1659 31.2422L29.2188 31.6387ZM35.7852 23.6572L36.185 23.6668V23.6668L35.7852 23.6572ZM29.4141 14.8252L29.5128 14.4376L29.4642 14.4252H29.4141V14.8252ZM19.375 14.8252V14.4252H18.975V14.8252H19.375ZM9.55078 15.4121L9.29963 15.1008L9.15078 15.2209V15.4121H9.55078ZM9.55078 43.0596H9.15078V44.1072L9.84899 43.3262L9.55078 43.0596ZM11.2715 41.1348L11.5697 41.4014L11.6725 41.2863L11.6715 41.132L11.2715 41.1348ZM11.0869 14.1729L11.4869 14.1701L11.4812 13.3408L10.8358 13.8615L11.0869 14.1729ZM12.627 11.7783L12.4007 11.4485L12.227 11.5676V11.7783H12.627ZM12.627 12.5557H12.2269L12.227 12.5584L12.627 12.5557ZM12.8105 39.4131L12.4106 39.4158L12.4176 40.4519L13.1086 39.6798L12.8105 39.4131ZM14.5488 37.4707L14.8469 37.7375L14.9488 37.6236V37.4707H14.5488ZM14.5488 10.46H14.9488V9.7005L14.3226 10.1301L14.5488 10.46ZM15.7451 3.77246L15.5282 4.10851L28.1307 12.2452L28.3477 11.9092L28.5646 11.5731L15.9621 3.43642L15.7451 3.77246ZM28.3477 11.9092L28.1307 12.2452L28.4862 12.4747L28.7031 12.1387L28.9201 11.8026L28.5646 11.5731L28.3477 11.9092ZM28.7031 12.1387H28.3031V13.2744H28.7031H29.1031V12.1387H28.7031ZM28.7031 13.2744V13.6744H29.6084V13.2744V12.8744H28.7031V13.2744ZM29.6084 13.2744L29.5124 13.6627L29.6032 13.6852L29.6992 13.2969L29.7952 12.9086L29.7044 12.8861L29.6084 13.2744ZM29.6992 13.2969L29.6041 13.6854C34.6745 14.9273 37.0384 19.407 36.9361 23.6848L37.3359 23.6943L37.7358 23.7039C37.845 19.1412 35.3111 14.2596 29.7944 12.9084L29.6992 13.2969ZM37.3359 23.6943L36.9361 23.6847C36.8336 27.9498 34.2708 32.1379 29.3916 32.7752L29.4434 33.1719L29.4952 33.5685C34.8751 32.8658 37.6268 28.2418 37.7358 23.7039L37.3359 23.6943ZM29.4434 33.1719L29.3774 32.7774L28.35 32.9492L28.416 33.3438L28.482 33.7383L29.5094 33.5664L29.4434 33.1719ZM28.416 33.3438L28.112 33.6037L38.1022 45.2883L38.4062 45.0283L38.7103 44.7684L28.72 33.0838L28.416 33.3438ZM38.4062 45.0283V45.4283H41.2314V45.0283V44.6283H38.4062V45.0283ZM41.2314 45.0283L41.2312 45.4283C41.4382 45.4285 41.6067 45.5968 41.6068 45.804L42.0068 45.8037L42.4068 45.8034C42.4063 45.155 41.8803 44.6288 41.2317 44.6283L41.2314 45.0283ZM42.0068 45.8037L41.6068 45.8035C41.6067 46.0106 41.4384 46.179 41.2312 46.1791L41.2314 46.5791L41.2317 46.9791C41.8802 46.9787 42.4065 46.4526 42.4068 45.8039L42.0068 45.8037ZM41.2314 46.5791V46.1791H30.5312V46.5791V46.9791H41.2314V46.5791ZM30.5312 46.5791L30.8438 46.3295L30.6114 46.0385L30.2988 46.2881L29.9863 46.5377L30.2187 46.8287L30.5312 46.5791ZM30.2988 46.2881L30.6112 46.0382L19.8944 32.6427L19.582 32.8926L19.2697 33.1425L29.9865 46.538L30.2988 46.2881ZM19.582 32.8926L19.8944 32.6427L19.535 32.1935L19.2227 32.4434L18.9103 32.6932L19.2697 33.1425L19.582 32.8926ZM19.2227 32.4434L19.5526 32.6695L19.8778 32.1948L19.5479 31.9688L19.2179 31.7427L18.8927 32.2173L19.2227 32.4434ZM19.5479 31.9688L19.8777 32.1951L24.1111 26.0251L23.7812 25.7988L23.4514 25.5725L19.218 31.7424L19.5479 31.9688ZM23.7812 25.7988L24.111 26.0253L24.3424 25.6884L24.0127 25.4619L23.683 25.2354L23.4515 25.5723L23.7812 25.7988ZM24.0127 25.4619V25.8619H28.2676V25.4619V25.0619H24.0127V25.4619ZM28.2676 25.4619L28.3208 25.8584C29.7283 25.6693 30.5568 24.3708 30.5913 22.9167L30.1914 22.9072L29.7915 22.8977C29.763 24.1011 29.1056 24.9458 28.2143 25.0655L28.2676 25.4619ZM30.1914 22.9072L30.5913 22.9166C30.625 21.4837 29.8765 20.1044 28.3212 19.7747L28.2383 20.166L28.1553 20.5573C29.2329 20.7858 29.8188 21.7362 29.7915 22.8978L30.1914 22.9072ZM28.2383 20.166V19.766H17.8242V20.166V20.566H28.2383V20.166ZM17.8242 20.166H18.2242V13.2744H17.8242H17.4242V20.166H17.8242ZM17.8242 13.2744V13.6744H27.1514V13.2744V12.8744H17.8242V13.2744ZM27.1514 13.2744H27.5514V12.9814H27.1514H26.7514V13.2744H27.1514ZM27.1514 12.9814L27.3683 12.6454L16.3175 5.51063L16.1006 5.84668L15.8836 6.18273L26.9344 13.3175L27.1514 12.9814ZM16.1006 5.84668H15.7006V38.0615H16.1006H16.5006V5.84668H16.1006ZM16.1006 38.0615L15.803 37.7942L15.6048 38.0149L15.9023 38.2822L16.1999 38.5495L16.3982 38.3288L16.1006 38.0615ZM15.9023 38.2822L15.6041 38.0156L9.05529 45.3418L9.35352 45.6084L9.65174 45.875L16.2006 38.5488L15.9023 38.2822ZM9.35352 45.6084L9.05534 45.3418L7.70182 46.8554L8 47.1221L8.29818 47.3887L9.65169 45.875L9.35352 45.6084ZM8 47.1221H8.4V14.6709H8H7.6V47.1221H8ZM8 14.6709L8.25065 14.9826L8.53971 14.7502L8.28906 14.4385L8.03841 14.1267L7.74935 14.3592L8 14.6709ZM8.28906 14.4385L8.54026 14.7498L11.3274 12.5007L11.0762 12.1895L10.825 11.8782L8.03787 14.1272L8.28906 14.4385ZM11.0762 12.1895H11.4762V10.9619H11.0762H10.6762V12.1895H11.0762ZM11.0762 10.9619L11.3027 11.2916L11.6396 11.0602L11.4131 10.7305L11.1866 10.4008L10.8497 10.6322L11.0762 10.9619ZM11.4131 10.7305L11.6394 11.0603L14.7751 8.90894L14.5488 8.5791L14.3225 8.24927L11.1868 10.4006L11.4131 10.7305ZM14.5488 8.5791H14.9488V3H14.5488H14.1488V8.5791H14.5488ZM14.5488 3L14.3318 3.33603L15.5281 4.10849L15.7451 3.77246L15.9621 3.43643L14.7658 2.66397L14.5488 3ZM19.375 18.6152V19.0152H28.3975V18.6152V18.2152H19.375V18.6152ZM28.3975 18.6152L28.3221 19.0081L28.3934 19.0217L28.4688 18.6289L28.5441 18.2361L28.4728 18.2224L28.3975 18.6152ZM28.4688 18.6289L28.3943 19.0219C30.4601 19.413 31.3815 21.2318 31.3413 22.9349L31.7412 22.9443L32.1411 22.9538C32.1874 20.9891 31.1086 18.7216 28.5432 18.2359L28.4688 18.6289ZM31.7412 22.9443L31.3413 22.9348C31.3011 24.6265 30.3028 26.3828 28.3683 26.6106L28.415 27.0078L28.4618 27.4051C30.9363 27.1138 32.0953 24.8788 32.1411 22.9538L31.7412 22.9443ZM28.415 27.0078L28.3718 26.6102L28.3269 26.615L28.3701 27.0127L28.4133 27.4104L28.4583 27.4055L28.415 27.0078ZM28.3701 27.0127V26.6127H24.8291V27.0127V27.4127H28.3701V27.0127ZM24.8291 27.0127L24.4993 26.7864L20.8216 32.1457L21.1514 32.3721L21.4812 32.5984L25.1589 27.239L24.8291 27.0127ZM21.1514 32.3721L20.839 32.622L30.965 45.2782L31.2773 45.0283L31.5897 44.7784L21.4637 32.1222L21.1514 32.3721ZM31.2773 45.0283V45.4283H36.3662V45.0283V44.6283H31.2773V45.0283ZM36.3662 45.0283L36.6702 44.7684L26.764 33.1824L26.46 33.4424L26.1559 33.7023L36.0622 45.2883L36.3662 45.0283ZM26.46 33.4424L26.764 33.1825C26.5239 32.9015 26.6827 32.466 27.0464 32.4053L26.9805 32.0107L26.9146 31.6162C25.9362 31.7797 25.512 32.9489 26.1559 33.7023L26.46 33.4424ZM26.9805 32.0107L27.0462 32.4053L29.2552 32.0371L29.1895 31.6426L29.1237 31.248L26.9147 31.6162L26.9805 32.0107ZM29.1895 31.6426L29.2423 32.0391L29.2716 32.0352L29.2188 31.6387L29.1659 31.2422L29.1366 31.2461L29.1895 31.6426ZM29.2188 31.6387L29.2694 32.0354C33.6968 31.47 36.0885 27.6813 36.185 23.6668L35.7852 23.6572L35.3853 23.6476C35.2955 27.3839 33.0975 30.7401 29.1681 31.2419L29.2188 31.6387ZM35.7852 23.6572L36.185 23.6668C36.2804 19.683 34.106 15.6071 29.5128 14.4376L29.4141 14.8252L29.3154 15.2128C33.4692 16.2705 35.4738 19.9497 35.3853 23.6477L35.7852 23.6572ZM29.4141 14.8252V14.4252H19.375V14.8252V15.2252H29.4141V14.8252ZM19.375 14.8252H18.975V18.6152H19.375H19.775V14.8252H19.375ZM9.55078 15.4121H9.15078V43.0596H9.55078H9.95078V15.4121H9.55078ZM9.55078 43.0596L9.84899 43.3262L11.5697 41.4014L11.2715 41.1348L10.9733 40.8682L9.25257 42.793L9.55078 43.0596ZM11.2715 41.1348L11.6715 41.132L11.4869 14.1701L11.0869 14.1729L10.6869 14.1756L10.8715 41.1375L11.2715 41.1348ZM11.0869 14.1729L10.8358 13.8615L9.29963 15.1008L9.55078 15.4121L9.80194 15.7234L11.3381 14.4842L11.0869 14.1729ZM12.627 11.7783H12.227V12.5557H12.627H13.027V11.7783H12.627ZM12.627 12.5557L12.227 12.5584L12.4106 39.4158L12.8105 39.4131L13.2105 39.4104L13.0269 12.5529L12.627 12.5557ZM12.8105 39.4131L13.1086 39.6798L14.8469 37.7375L14.5488 37.4707L14.2508 37.204L12.5125 39.1463L12.8105 39.4131ZM14.5488 37.4707H14.9488V10.46H14.5488H14.1488V37.4707H14.5488ZM14.5488 10.46L14.3226 10.1301L12.4007 11.4485L12.627 11.7783L12.8532 12.1082L14.7751 10.7898L14.5488 10.46Z" fill="black" mask="url(#path-2-outside-1_3472_1028)"/>
</svg>
